<svg id="visual" viewBox="0 0 900 600" width="900" height="600" xmlns="http://www.w3.org/2000/svg" xmlns:xlink="http://www.w3.org/1999/xlink" version="1.1"><rect x="0" y="0" width="900" height="600" fill="#001220"></rect><defs><linearGradient id="grad1_0" x1="33.3%" y1="0%" x2="100%" y2="100%"><stop offset="20%" stop-color="#001220" stop-opacity="1"></stop><stop offset="80%" stop-color="#001220" stop-opacity="1"></stop></linearGradient></defs><defs><linearGradient id="grad2_0" x1="0%" y1="0%" x2="66.7%" y2="100%"><stop offset="20%" stop-color="#001220" stop-opacity="1"></stop><stop offset="80%" stop-color="#001220" stop-opacity="1"></stop></linearGradient></defs><g transform="translate(900, 0)"><path d="M0 405.6C-40.4 365.5 -80.9 325.3 -127.1 306.7C-173.2 288.1 -225.1 291.1 -270.1 270.1C-315.1 249.1 -353.3 204.2 -374.7 155.2C-396.2 106.2 -400.9 53.1 -405.6 0L0 0Z" fill="#FBAE3C"></path></g><g transform="translate(0, 600)"><path d="M0 -405.6C38.1 -362.3 76.2 -318.9 125.9 -304C175.6 -289 236.8 -302.4 282.1 -282.1C327.4 -261.9 356.8 -207.9 374.7 -155.2C392.7 -102.6 399.1 -51.3 405.6 0L0 0Z" fill="#FBAE3C"></path></g></svg>