<svg id="visual" viewBox="0 0 900 300" width="900" height="300" xmlns="http://www.w3.org/2000/svg" xmlns:xlink="http://www.w3.org/1999/xlink" version="1.1"><rect x="0" y="0" width="900" height="300" fill="#111827"></rect><path d="M0 174L33 52L67 143L100 92L133 63L167 189L200 116L233 224L267 20L300 102L333 242L367 200L400 69L433 247L467 273L500 8L533 162L567 294L600 217L633 193L667 133L700 247L733 8L767 5L800 188L833 118L867 259L900 212" fill="none" stroke-linecap="square" stroke-linejoin="bevel" stroke="#FCE951" stroke-width="40"></path></svg>